<svg id="visual" viewBox="0 0 1450 350" width="1450" height="350" xmlns="http://www.w3.org/2000/svg" xmlns:xlink="http://www.w3.org/1999/xlink" version="1.1"><rect x="0" y="0" width="1450" height="350" fill="#1b2b40"></rect><defs><linearGradient id="grad1_0" x1="75.9%" y1="0%" x2="100%" y2="100%"><stop offset="-32.85714285714286%" stop-color="#1b2b40" stop-opacity="1"></stop><stop offset="132.85714285714286%" stop-color="#1b2b40" stop-opacity="1"></stop></linearGradient></defs><defs><linearGradient id="grad2_0" x1="0%" y1="0%" x2="24.1%" y2="100%"><stop offset="-32.85714285714286%" stop-color="#1b2b40" stop-opacity="1"></stop><stop offset="132.85714285714286%" stop-color="#1b2b40" stop-opacity="1"></stop></linearGradient></defs><g transform="translate(1450, 0)"><path d="M0 350C-57 334.1 -113.9 318.2 -168 291C-222.1 263.8 -273.3 225.4 -303.1 175C-333 124.6 -341.5 62.3 -350 0L0 0Z" fill="#243955"></path></g><g transform="translate(0, 350)"><path d="M0 -350C68.2 -344.9 136.4 -339.8 175 -303.1C213.6 -266.5 222.6 -198.3 246.8 -142.5C271 -86.7 310.5 -43.4 350 0L0 0Z" fill="#243955"></path></g></svg>