<svg id="visual" viewBox="0 0 675 900" width="675" height="900" xmlns="http://www.w3.org/2000/svg" xmlns:xlink="http://www.w3.org/1999/xlink" version="1.1"><g stroke-width="1" stroke-linejoin="bevel"><path d="M309 458L371 412L317 407Z" fill="#1a2e3e" stroke="#1a2e3e"></path><path d="M309 458L401 430L371 412Z" fill="#0f1c27" stroke="#0f1c27"></path><path d="M317 407L260 476L309 458Z" fill="#142532" stroke="#142532"></path><path d="M309 458L400 517L401 430Z" fill="#0f1c27" stroke="#0f1c27"></path><path d="M401 430L420 388L371 412Z" fill="#142532" stroke="#142532"></path><path d="M371 412L405 333L317 407Z" fill="#142532" stroke="#142532"></path><path d="M323 560L400 517L309 458Z" fill="#142532" stroke="#142532"></path><path d="M401 430L453 418L420 388Z" fill="#13232f" stroke="#13232f"></path><path d="M400 517L453 418L401 430Z" fill="#1a2e3e" stroke="#1a2e3e"></path><path d="M544 311L405 333L420 388Z" fill="#0e1a24" stroke="#0e1a24"></path><path d="M420 388L405 333L371 412Z" fill="#12212c" stroke="#12212c"></path><path d="M261 540L323 560L309 458Z" fill="#101f29" stroke="#101f29"></path><path d="M319 300L221 393L317 407Z" fill="#142532" stroke="#142532"></path><path d="M317 407L221 393L260 476Z" fill="#172a38" stroke="#172a38"></path><path d="M394 570L414 544L400 517Z" fill="#172a38" stroke="#172a38"></path><path d="M400 517L509 444L453 418Z" fill="#0f1c27" stroke="#0f1c27"></path><path d="M209 509L261 540L260 476Z" fill="#0c1821" stroke="#0c1821"></path><path d="M260 476L261 540L309 458Z" fill="#0c1821" stroke="#0c1821"></path><path d="M405 333L319 300L317 407Z" fill="#0f1c27" stroke="#0f1c27"></path><path d="M323 560L394 570L400 517Z" fill="#172a38" stroke="#172a38"></path><path d="M178 470L209 509L260 476Z" fill="#0f1c27" stroke="#0f1c27"></path><path d="M509 444L501 413L453 418Z" fill="#0f1c27" stroke="#0f1c27"></path><path d="M453 418L501 413L420 388Z" fill="#0e1a24" stroke="#0e1a24"></path><path d="M221 393L178 470L260 476Z" fill="#142532" stroke="#142532"></path><path d="M524 514L400 517L414 544Z" fill="#0c1821" stroke="#0c1821"></path><path d="M524 514L509 444L400 517Z" fill="#13232f" stroke="#13232f"></path><path d="M503 584L524 514L414 544Z" fill="#0e1a24" stroke="#0e1a24"></path><path d="M319 300L211 284L221 393Z" fill="#192c3b" stroke="#192c3b"></path><path d="M102 437L110 487L178 470Z" fill="#13232f" stroke="#13232f"></path><path d="M221 629L321 646L323 560Z" fill="#162735" stroke="#162735"></path><path d="M323 560L321 646L394 570Z" fill="#162735" stroke="#162735"></path><path d="M394 570L483 593L414 544Z" fill="#142532" stroke="#142532"></path><path d="M221 629L323 560L261 540Z" fill="#101f29" stroke="#101f29"></path><path d="M463 647L483 593L394 570Z" fill="#12212c" stroke="#12212c"></path><path d="M483 593L503 584L414 544Z" fill="#101f29" stroke="#101f29"></path><path d="M544 311L478 266L405 333Z" fill="#162735" stroke="#162735"></path><path d="M405 333L374 215L319 300Z" fill="#172a38" stroke="#172a38"></path><path d="M319 300L228 247L211 284Z" fill="#0c1821" stroke="#0c1821"></path><path d="M544 311L420 388L501 413Z" fill="#1a2e3e" stroke="#1a2e3e"></path><path d="M607 424L501 413L509 444Z" fill="#162735" stroke="#162735"></path><path d="M260 186L228 247L319 300Z" fill="#101f29" stroke="#101f29"></path><path d="M447 220L374 215L405 333Z" fill="#0e1a24" stroke="#0e1a24"></path><path d="M110 487L172 584L209 509Z" fill="#162735" stroke="#162735"></path><path d="M209 509L172 584L261 540Z" fill="#172a38" stroke="#172a38"></path><path d="M172 584L221 629L261 540Z" fill="#142532" stroke="#142532"></path><path d="M599 631L571 492L524 514Z" fill="#0c1821" stroke="#0c1821"></path><path d="M524 514L571 492L509 444Z" fill="#172a38" stroke="#172a38"></path><path d="M102 437L178 470L221 393Z" fill="#172a38" stroke="#172a38"></path><path d="M178 470L110 487L209 509Z" fill="#13232f" stroke="#13232f"></path><path d="M102 437L221 393L112 335Z" fill="#1a2e3e" stroke="#1a2e3e"></path><path d="M607 424L544 311L501 413Z" fill="#12212c" stroke="#12212c"></path><path d="M112 335L221 393L211 284Z" fill="#1a2e3e" stroke="#1a2e3e"></path><path d="M478 266L447 220L405 333Z" fill="#13232f" stroke="#13232f"></path><path d="M564 200L447 220L478 266Z" fill="#142532" stroke="#142532"></path><path d="M483 593L463 647L503 584Z" fill="#0e1a24" stroke="#0e1a24"></path><path d="M503 584L599 631L524 514Z" fill="#192c3b" stroke="#192c3b"></path><path d="M379 693L463 647L394 570Z" fill="#192c3b" stroke="#192c3b"></path><path d="M227 163L177 248L228 247Z" fill="#142532" stroke="#142532"></path><path d="M228 247L177 248L211 284Z" fill="#12212c" stroke="#12212c"></path><path d="M123 265L112 335L211 284Z" fill="#142532" stroke="#142532"></path><path d="M289 739L379 693L321 646Z" fill="#101f29" stroke="#101f29"></path><path d="M321 646L379 693L394 570Z" fill="#0c1821" stroke="#0c1821"></path><path d="M306 158L260 186L374 215Z" fill="#101f29" stroke="#101f29"></path><path d="M374 215L260 186L319 300Z" fill="#12212c" stroke="#12212c"></path><path d="M571 492L607 424L509 444Z" fill="#1a2e3e" stroke="#1a2e3e"></path><path d="M40 269L83 364L112 335Z" fill="#1a2e3e" stroke="#1a2e3e"></path><path d="M112 335L83 364L102 437Z" fill="#0c1821" stroke="#0c1821"></path><path d="M102 437L53 508L110 487Z" fill="#1a2e3e" stroke="#1a2e3e"></path><path d="M156 670L258 701L221 629Z" fill="#0c1821" stroke="#0c1821"></path><path d="M221 629L258 701L321 646Z" fill="#172a38" stroke="#172a38"></path><path d="M110 246L123 265L177 248Z" fill="#162735" stroke="#162735"></path><path d="M177 248L123 265L211 284Z" fill="#142532" stroke="#142532"></path><path d="M378 133L306 158L374 215Z" fill="#142532" stroke="#142532"></path><path d="M260 186L227 163L228 247Z" fill="#162735" stroke="#162735"></path><path d="M306 158L227 163L260 186Z" fill="#1a2e3e" stroke="#1a2e3e"></path><path d="M0 476L53 508L102 437Z" fill="#172a38" stroke="#172a38"></path><path d="M110 487L53 508L172 584Z" fill="#1a2e3e" stroke="#1a2e3e"></path><path d="M172 584L156 670L221 629Z" fill="#1a2e3e" stroke="#1a2e3e"></path><path d="M112 658L156 670L172 584Z" fill="#13232f" stroke="#13232f"></path><path d="M142 180L110 246L177 248Z" fill="#12212c" stroke="#12212c"></path><path d="M123 265L40 269L112 335Z" fill="#172a38" stroke="#172a38"></path><path d="M417 140L374 215L447 220Z" fill="#142532" stroke="#142532"></path><path d="M417 140L378 133L374 215Z" fill="#172a38" stroke="#172a38"></path><path d="M306 158L272 70L227 163Z" fill="#13232f" stroke="#13232f"></path><path d="M525 147L417 140L447 220Z" fill="#101f29" stroke="#101f29"></path><path d="M209 779L289 739L258 701Z" fill="#101f29" stroke="#101f29"></path><path d="M258 701L289 739L321 646Z" fill="#13232f" stroke="#13232f"></path><path d="M607 424L638 356L544 311Z" fill="#192c3b" stroke="#192c3b"></path><path d="M544 311L585 225L478 266Z" fill="#13232f" stroke="#13232f"></path><path d="M638 356L605 274L544 311Z" fill="#0c1821" stroke="#0c1821"></path><path d="M45 638L112 658L172 584Z" fill="#142532" stroke="#142532"></path><path d="M156 670L188 766L258 701Z" fill="#172a38" stroke="#172a38"></path><path d="M539 702L503 584L463 647Z" fill="#1a2e3e" stroke="#1a2e3e"></path><path d="M539 702L599 631L503 584Z" fill="#0e1a24" stroke="#0e1a24"></path><path d="M571 492L675 462L607 424Z" fill="#12212c" stroke="#12212c"></path><path d="M607 424L675 403L638 356Z" fill="#192c3b" stroke="#192c3b"></path><path d="M408 759L463 647L379 693Z" fill="#162735" stroke="#162735"></path><path d="M605 274L585 225L544 311Z" fill="#0f1c27" stroke="#0f1c27"></path><path d="M585 225L564 200L478 266Z" fill="#12212c" stroke="#12212c"></path><path d="M227 163L142 180L177 248Z" fill="#0e1a24" stroke="#0e1a24"></path><path d="M289 739L408 759L379 693Z" fill="#0f1c27" stroke="#0f1c27"></path><path d="M452 785L539 702L463 647Z" fill="#0e1a24" stroke="#0e1a24"></path><path d="M539 702L607 640L599 631Z" fill="#0e1a24" stroke="#0e1a24"></path><path d="M675 515L675 462L571 492Z" fill="#172a38" stroke="#172a38"></path><path d="M675 515L571 492L675 586Z" fill="#162735" stroke="#162735"></path><path d="M675 462L675 403L607 424Z" fill="#192c3b" stroke="#192c3b"></path><path d="M638 356L675 281L605 274Z" fill="#0f1c27" stroke="#0f1c27"></path><path d="M675 169L580 188L585 225Z" fill="#101f29" stroke="#101f29"></path><path d="M675 586L571 492L599 631Z" fill="#192c3b" stroke="#192c3b"></path><path d="M580 188L525 147L564 200Z" fill="#162735" stroke="#162735"></path><path d="M564 200L525 147L447 220Z" fill="#1a2e3e" stroke="#1a2e3e"></path><path d="M417 140L403 95L378 133Z" fill="#12212c" stroke="#12212c"></path><path d="M0 377L0 476L102 437Z" fill="#101f29" stroke="#101f29"></path><path d="M53 508L45 638L172 584Z" fill="#101f29" stroke="#101f29"></path><path d="M0 377L102 437L83 364Z" fill="#142532" stroke="#142532"></path><path d="M675 264L585 225L605 274Z" fill="#12212c" stroke="#12212c"></path><path d="M585 225L580 188L564 200Z" fill="#172a38" stroke="#172a38"></path><path d="M0 200L40 269L110 246Z" fill="#142532" stroke="#142532"></path><path d="M110 246L40 269L123 265Z" fill="#13232f" stroke="#13232f"></path><path d="M0 332L0 377L83 364Z" fill="#1a2e3e" stroke="#1a2e3e"></path><path d="M470 73L403 95L417 140Z" fill="#13232f" stroke="#13232f"></path><path d="M378 133L272 70L306 158Z" fill="#172a38" stroke="#172a38"></path><path d="M227 163L127 97L142 180Z" fill="#142532" stroke="#142532"></path><path d="M0 476L0 513L53 508Z" fill="#1a2e3e" stroke="#1a2e3e"></path><path d="M40 269L0 332L83 364Z" fill="#13232f" stroke="#13232f"></path><path d="M289 739L410 788L408 759Z" fill="#0f1c27" stroke="#0f1c27"></path><path d="M408 759L452 785L463 647Z" fill="#142532" stroke="#142532"></path><path d="M0 605L45 638L53 508Z" fill="#172a38" stroke="#172a38"></path><path d="M72 734L188 766L156 670Z" fill="#172a38" stroke="#172a38"></path><path d="M72 734L156 670L112 658Z" fill="#0c1821" stroke="#0c1821"></path><path d="M289 739L260 843L410 788Z" fill="#142532" stroke="#142532"></path><path d="M410 788L452 785L408 759Z" fill="#101f29" stroke="#101f29"></path><path d="M675 640L675 586L607 640Z" fill="#12212c" stroke="#12212c"></path><path d="M607 640L675 586L599 631Z" fill="#192c3b" stroke="#192c3b"></path><path d="M675 640L607 640L636 728Z" fill="#142532" stroke="#142532"></path><path d="M188 766L209 779L258 701Z" fill="#142532" stroke="#142532"></path><path d="M675 403L675 281L638 356Z" fill="#0e1a24" stroke="#0e1a24"></path><path d="M403 95L272 70L378 133Z" fill="#0c1821" stroke="#0c1821"></path><path d="M675 281L675 264L605 274Z" fill="#13232f" stroke="#13232f"></path><path d="M0 513L0 605L53 508Z" fill="#162735" stroke="#162735"></path><path d="M45 638L72 734L112 658Z" fill="#142532" stroke="#142532"></path><path d="M525 147L470 73L417 140Z" fill="#0c1821" stroke="#0c1821"></path><path d="M289 0L240 37L272 70Z" fill="#101f29" stroke="#101f29"></path><path d="M512 37L470 73L525 147Z" fill="#101f29" stroke="#101f29"></path><path d="M631 78L525 147L580 188Z" fill="#192c3b" stroke="#192c3b"></path><path d="M410 788L431 814L452 785Z" fill="#142532" stroke="#142532"></path><path d="M636 728L607 640L539 702Z" fill="#12212c" stroke="#12212c"></path><path d="M379 900L431 814L410 788Z" fill="#101f29" stroke="#101f29"></path><path d="M564 766L539 702L452 785Z" fill="#0f1c27" stroke="#0f1c27"></path><path d="M552 810L564 766L452 785Z" fill="#13232f" stroke="#13232f"></path><path d="M0 669L72 734L45 638Z" fill="#101f29" stroke="#101f29"></path><path d="M249 851L260 843L209 779Z" fill="#0f1c27" stroke="#0f1c27"></path><path d="M44 135L0 200L110 246Z" fill="#142532" stroke="#142532"></path><path d="M40 269L0 200L0 332Z" fill="#192c3b" stroke="#192c3b"></path><path d="M240 37L127 97L227 163Z" fill="#0e1a24" stroke="#0e1a24"></path><path d="M345 0L272 70L403 95Z" fill="#0e1a24" stroke="#0e1a24"></path><path d="M272 70L240 37L227 163Z" fill="#12212c" stroke="#12212c"></path><path d="M0 605L0 669L45 638Z" fill="#0c1821" stroke="#0c1821"></path><path d="M564 766L636 728L539 702Z" fill="#0f1c27" stroke="#0f1c27"></path><path d="M249 851L209 779L131 853Z" fill="#142532" stroke="#142532"></path><path d="M209 779L260 843L289 739Z" fill="#172a38" stroke="#172a38"></path><path d="M44 135L110 246L142 180Z" fill="#172a38" stroke="#172a38"></path><path d="M86 68L44 135L127 97Z" fill="#1a2e3e" stroke="#1a2e3e"></path><path d="M127 97L44 135L142 180Z" fill="#172a38" stroke="#172a38"></path><path d="M131 853L209 779L188 766Z" fill="#0c1821" stroke="#0c1821"></path><path d="M260 843L379 900L410 788Z" fill="#172a38" stroke="#172a38"></path><path d="M675 264L675 169L585 225Z" fill="#13232f" stroke="#13232f"></path><path d="M431 814L552 810L452 785Z" fill="#12212c" stroke="#12212c"></path><path d="M564 766L576 817L636 728Z" fill="#0c1821" stroke="#0c1821"></path><path d="M576 817L552 810L549 900Z" fill="#142532" stroke="#142532"></path><path d="M631 78L512 37L525 147Z" fill="#142532" stroke="#142532"></path><path d="M447 0L345 0L403 95Z" fill="#162735" stroke="#162735"></path><path d="M447 0L403 95L470 73Z" fill="#0c1821" stroke="#0c1821"></path><path d="M345 0L289 0L272 70Z" fill="#142532" stroke="#142532"></path><path d="M132 0L86 68L127 97Z" fill="#142532" stroke="#142532"></path><path d="M438 900L552 810L431 814Z" fill="#162735" stroke="#162735"></path><path d="M552 810L576 817L564 766Z" fill="#142532" stroke="#142532"></path><path d="M132 0L127 97L240 37Z" fill="#0c1821" stroke="#0c1821"></path><path d="M44 135L0 136L0 200Z" fill="#0c1821" stroke="#0c1821"></path><path d="M512 37L447 0L470 73Z" fill="#1a2e3e" stroke="#1a2e3e"></path><path d="M289 0L234 0L240 37Z" fill="#172a38" stroke="#172a38"></path><path d="M0 772L110 826L72 734Z" fill="#1a2e3e" stroke="#1a2e3e"></path><path d="M72 734L110 826L188 766Z" fill="#13232f" stroke="#13232f"></path><path d="M0 71L0 136L44 135Z" fill="#192c3b" stroke="#192c3b"></path><path d="M576 817L675 754L636 728Z" fill="#0c1821" stroke="#0c1821"></path><path d="M636 728L675 754L675 640Z" fill="#192c3b" stroke="#192c3b"></path><path d="M675 169L631 78L580 188Z" fill="#172a38" stroke="#172a38"></path><path d="M512 37L560 0L447 0Z" fill="#172a38" stroke="#172a38"></path><path d="M269 900L260 843L249 851Z" fill="#0e1a24" stroke="#0e1a24"></path><path d="M269 900L379 900L260 843Z" fill="#0e1a24" stroke="#0e1a24"></path><path d="M110 826L131 853L188 766Z" fill="#101f29" stroke="#101f29"></path><path d="M257 900L269 900L249 851Z" fill="#1a2e3e" stroke="#1a2e3e"></path><path d="M171 900L257 900L249 851Z" fill="#13232f" stroke="#13232f"></path><path d="M379 900L438 900L431 814Z" fill="#13232f" stroke="#13232f"></path><path d="M110 826L111 900L131 853Z" fill="#192c3b" stroke="#192c3b"></path><path d="M0 669L0 772L72 734Z" fill="#192c3b" stroke="#192c3b"></path><path d="M234 0L132 0L240 37Z" fill="#0f1c27" stroke="#0f1c27"></path><path d="M86 68L0 71L44 135Z" fill="#0c1821" stroke="#0c1821"></path><path d="M631 78L560 0L512 37Z" fill="#1a2e3e" stroke="#1a2e3e"></path><path d="M131 853L171 900L249 851Z" fill="#192c3b" stroke="#192c3b"></path><path d="M111 900L171 900L131 853Z" fill="#172a38" stroke="#172a38"></path><path d="M69 0L0 71L86 68Z" fill="#142532" stroke="#142532"></path><path d="M675 169L675 58L631 78Z" fill="#142532" stroke="#142532"></path><path d="M631 78L634 0L560 0Z" fill="#192c3b" stroke="#192c3b"></path><path d="M438 900L549 900L552 810Z" fill="#13232f" stroke="#13232f"></path><path d="M576 817L675 840L675 754Z" fill="#13232f" stroke="#13232f"></path><path d="M132 0L69 0L86 68Z" fill="#0e1a24" stroke="#0e1a24"></path><path d="M0 860L111 900L110 826Z" fill="#13232f" stroke="#13232f"></path><path d="M549 900L574 900L576 817Z" fill="#0c1821" stroke="#0c1821"></path><path d="M574 900L675 840L576 817Z" fill="#0c1821" stroke="#0c1821"></path><path d="M675 58L634 0L631 78Z" fill="#0e1a24" stroke="#0e1a24"></path><path d="M0 772L0 860L110 826Z" fill="#142532" stroke="#142532"></path><path d="M675 58L675 0L634 0Z" fill="#0f1c27" stroke="#0f1c27"></path><path d="M69 0L0 0L0 71Z" fill="#13232f" stroke="#13232f"></path><path d="M574 900L675 900L675 840Z" fill="#0e1a24" stroke="#0e1a24"></path><path d="M0 860L0 900L111 900Z" fill="#142532" stroke="#142532"></path></g></svg>